<svg xmlns="http://www.w3.org/2000/svg" width="15" height="18" viewBox="0 0 15 18">
  <path fill="#FFF" d="M10.8808632,23.9324892 L9.36682929,13.8363511 C9.34324045,13.6790519 9.45163405,13.5324133 9.60893318,13.5088244 C9.69577378,13.4958017 9.78381128,13.523109 9.84803872,13.5829899 L12.2854153,15.855418 C12.401754,15.9638835 12.5839938,15.9575011 12.6924593,15.8411624 C12.7163065,15.8155842 12.7352959,15.7858767 12.7484979,15.753494 L16.0111143,7.75076928 C16.0711619,7.60348133 16.2392405,7.53275902 16.3865285,7.59280658 C16.4568317,7.62146836 16.5129736,7.67673093 16.5427416,7.7465729 L19.9592626,15.7624453 C20.0216278,15.908767 20.1908019,15.9768272 20.3371236,15.9144621 C20.3678886,15.9013494 20.3961347,15.8829786 20.4205956,15.860173 L22.8630724,13.5829899 C22.9794111,13.4745244 23.1616508,13.4809069 23.2701163,13.5972455 C23.3299972,13.661473 23.3573046,13.7495105 23.3442818,13.8363511 L21.8302479,23.9324892 C21.8091054,24.0734757 21.6879957,24.1777778 21.5454327,24.1777778 L11.1656784,24.1777778 C11.0231154,24.1777778 10.9020058,24.0734757 10.8808632,23.9324892 Z" transform="translate(-9 -7)"/>
</svg>
