<svg xmlns="http://www.w3.org/2000/svg" width="16" height="19" viewBox="0 0 16 19">
  <g fill="none" transform="rotate(-180 7.5 9.5)">
    <path stroke="#FFF" stroke-linecap="round" stroke-width="1.105" d="M7,17.4333333 C10.8659932,17.4333333 14,14.3254433 14,10.4916667 C14,6.65789003 10.8659932,3.55 7,3.55 C3.13400675,3.55 0,6.65789003 0,10.4916667" transform="rotate(90 7 10.492)"/>
    <path fill="#FFF" d="M1.13911349,0.95686661 L3.77903982,6.27427443 C3.84688427,6.41092847 4.01266306,6.46670967 4.1493171,6.39886522 C4.20333352,6.37204776 4.24709043,6.32829086 4.27390789,6.27427443 L6.91383422,0.95686661 C6.98167867,0.820212567 6.92589748,0.654433785 6.78924343,0.586589335 C6.75106699,0.567635929 6.70902263,0.557773368 6.66640019,0.557773368 L1.38654752,0.557773368 C1.23397886,0.557773368 1.11029752,0.681454706 1.11029752,0.834023368 C1.11029752,0.876645806 1.12016008,0.918690169 1.13911349,0.95686661 Z" transform="rotate(90 4.027 3.456)"/>
  </g>
</svg>
